<svg id="Layer_3" data-name="Layer 3" xmlns="http://www.w3.org/2000/svg" viewBox="0 0 150 150"><defs><style>.cls-1{fill:#aaa;}.cls-2{fill:none;stroke-width:9.77px;}.cls-2,.cls-3{stroke:#454547;stroke-miterlimit:10;}.cls-3{fill:#454547;stroke-width:4.19px;}</style></defs><title>dashboard_refresh</title><rect class="cls-1" x="-1484.54" y="-274.13" width="2531.25" height="1518.75"/><path class="cls-2" d="M127,97a56.07,56.07,0,0,1-5.21,9.58,56.76,56.76,0,0,1-15.24,15.24,56.26,56.26,0,0,1-63.08,0,56.76,56.76,0,0,1-15.24-15.24,55.7,55.7,0,0,1-8.49-20.17"/><path class="cls-2" d="M23,53a56.07,56.07,0,0,1,5.21-9.58A56.76,56.76,0,0,1,43.46,28.22a56.26,56.26,0,0,1,63.08,0,56.76,56.76,0,0,1,15.24,15.24,55.7,55.7,0,0,1,8.49,20.17"/><polygon class="cls-3" points="130.03 62.95 142.81 60.79 138.29 72.94 133.76 85.08 125.51 75.09 117.25 65.1 130.03 62.95"/><polygon class="cls-3" points="19.97 86.9 7.19 89.05 11.71 76.91 16.24 64.77 24.49 74.75 32.75 84.74 19.97 86.9"/></svg>