<svg id="Layer_3" data-name="Layer 3" xmlns="http://www.w3.org/2000/svg" viewBox="0 0 500 500"><defs><style>.cls-1{fill:#fff;}</style></defs><title>LogBook</title><circle class="cls-1" cx="417.83" cy="350.7" r="21.48"/><circle class="cls-1" cx="417.83" cy="417.83" r="21.48"/><circle class="cls-1" cx="417.83" cy="216.43" r="21.48"/><circle class="cls-1" cx="417.83" cy="149.3" r="21.48"/><circle class="cls-1" cx="417.83" cy="82.17" r="21.48"/><circle class="cls-1" cx="417.83" cy="283.56" r="21.48"/><circle class="cls-1" cx="350.7" cy="350.7" r="21.48"/><circle class="cls-1" cx="350.7" cy="417.83" r="21.48"/><circle class="cls-1" cx="350.7" cy="216.43" r="21.48"/><circle class="cls-1" cx="350.7" cy="283.56" r="21.48"/><circle class="cls-1" cx="283.57" cy="350.7" r="21.48"/><circle class="cls-1" cx="283.57" cy="417.83" r="21.48"/><circle class="cls-1" cx="283.57" cy="283.56" r="21.48"/><circle class="cls-1" cx="216.43" cy="350.7" r="21.48"/><circle class="cls-1" cx="216.43" cy="417.83" r="21.48"/><circle class="cls-1" cx="149.3" cy="417.83" r="21.48"/><circle class="cls-1" cx="350.7" cy="149.3" r="21.48"/><circle class="cls-1" cx="283.57" cy="216.43" r="21.48"/><circle class="cls-1" cx="216.43" cy="283.56" r="21.48"/><circle class="cls-1" cx="149.3" cy="350.7" r="21.48"/><circle class="cls-1" cx="82.17" cy="417.83" r="21.48"/></svg>