<svg id="Layer_3" data-name="Layer 3" xmlns="http://www.w3.org/2000/svg" viewBox="0 0 150 150"><defs><style>.cls-1{fill:#454547;}</style></defs><title>LogBook</title><rect class="cls-1" x="104.43" y="30.52" width="5.95" height="12.12"/><rect class="cls-1" x="39.63" y="30.52" width="5.95" height="12.12"/><path class="cls-1" d="M112,41.16v3h-9.28v-3H47.24v3H38v-3H17.19v85.47H132.81V41.16Zm14.78,79.48H23.18V47.15H126.82Z"/><rect class="cls-1" x="77.73" y="55.56" width="10.18" height="10.18"/><rect class="cls-1" x="93.38" y="55.56" width="10.18" height="10.18"/><rect class="cls-1" x="109.04" y="55.56" width="10.18" height="10.18"/><rect class="cls-1" x="30.78" y="72.09" width="10.18" height="10.18"/><rect class="cls-1" x="46.43" y="72.09" width="10.18" height="10.18"/><rect class="cls-1" x="62.08" y="72.09" width="10.18" height="10.18"/><rect class="cls-1" x="77.73" y="72.09" width="10.18" height="10.18"/><rect class="cls-1" x="93.38" y="72.09" width="10.18" height="10.18"/><rect class="cls-1" x="109.04" y="72.09" width="10.18" height="10.18"/><rect class="cls-1" x="30.78" y="88.62" width="10.18" height="10.18"/><rect class="cls-1" x="46.43" y="88.62" width="10.18" height="10.18"/><rect class="cls-1" x="62.08" y="88.62" width="10.18" height="10.18"/><rect class="cls-1" x="77.73" y="88.62" width="10.18" height="10.18"/><rect class="cls-1" x="93.38" y="88.62" width="10.18" height="10.18"/><rect class="cls-1" x="109.04" y="88.62" width="10.18" height="10.18"/><rect class="cls-1" x="30.78" y="105.15" width="10.18" height="10.18"/><rect class="cls-1" x="46.43" y="105.15" width="10.18" height="10.18"/><rect class="cls-1" x="62.08" y="105.15" width="10.18" height="10.18"/><rect class="cls-1" x="77.73" y="105.15" width="10.18" height="10.18"/></svg>