<svg id="Layer_3" data-name="Layer 3" xmlns="http://www.w3.org/2000/svg" viewBox="0 0 150 150"><defs><style>.cls-1{fill:#454547;}</style></defs><title>LogBook</title><path class="cls-1" d="M28.49,14.58V116.5h93V14.58ZM69.23,36.66a12.47,12.47,0,0,1,6.22-1.4,12.94,12.94,0,0,1,6.11,1.35c1.71.91,2.57,2,2.57,3.33s-.86,2.42-2.57,3.34a12.7,12.7,0,0,1-6.11,1.38,12.54,12.54,0,0,1-6.15-1.4c-1.69-.93-2.53-2-2.53-3.32S67.59,37.59,69.23,36.66ZM94.47,93.17h-37v-7H68.81V60.38H57.49V53.44H83.15V86.22H94.47Z"/><rect class="cls-1" x="28.48" y="116.5" width="6.08" height="12.5"/><rect class="cls-1" x="117.25" y="116.5" width="3.19" height="12.5"/><rect class="cls-1" x="40.6" y="121.13" width="76.66" height="3.25"/><rect class="cls-1" x="28.48" y="129" width="93.03" height="6.42"/></svg>