<svg id="Layer_3" data-name="Layer 3" xmlns="http://www.w3.org/2000/svg" viewBox="0 0 150 150"><defs><style>.cls-1{fill:#aaa;}.cls-2{fill:#454547;}</style></defs><title>lost_and_found</title><rect class="cls-1" x="-1000.17" y="-440.63" width="2531.25" height="1518.75"/><path class="cls-2" d="M123.11,40.3h-7.9v82.61h7.9a18.74,18.74,0,0,0,18.72-18.74V59A18.72,18.72,0,0,0,123.11,40.3Zm-96.21,0A18.72,18.72,0,0,0,8.17,59v45.13A18.74,18.74,0,0,0,26.9,122.91h7.58V40.3Z"/><path class="cls-2" d="M39.49,40.3v82.61H110.2V40.3ZM73.29,114a5,5,0,0,1-3.44,1.33,5.11,5.11,0,0,1-3.56-1.44,4.53,4.53,0,0,1-1.54-3.4,4.36,4.36,0,0,1,1.5-3.38,5.12,5.12,0,0,1,3.56-1.37,5,5,0,0,1,3.4,1.37,4.74,4.74,0,0,1,1.54,3.74A4.12,4.12,0,0,1,73.29,114ZM91.23,71.91a23.39,23.39,0,0,1-4.43,5.81Q84.2,80.21,79.4,84a27.29,27.29,0,0,0-6.58,6.83A11.07,11.07,0,0,0,71,96.36q0,4-2.33,4A1.76,1.76,0,0,1,67,99.46a12.29,12.29,0,0,1-.45-4.25,14.26,14.26,0,0,1,1.77-6.69q1.75-3.39,7.12-8.44c3.67-3.49,6-6.44,7-8.88a19.08,19.08,0,0,0,1.49-7.35,12.47,12.47,0,0,0-2.75-8,8.71,8.71,0,0,0-7.23-3.51c-3.63,0-6.48,1-8.57,2.87a9.56,9.56,0,0,0-3.15,7.37,7.86,7.86,0,0,0,1.1,4.23,3.22,3.22,0,0,0,2.81,1.77,2.82,2.82,0,0,0,1-.17,2.74,2.74,0,0,1,.9-.15,3.67,3.67,0,0,1,2.16.79,2.27,2.27,0,0,1,1.08,1.84,3.29,3.29,0,0,1-1.7,2.94,7.37,7.37,0,0,1-4,1.07,7.66,7.66,0,0,1-6-3c-1.72-2-2.58-4.88-2.58-8.61a14.86,14.86,0,0,1,4.58-10.9q4.56-4.58,12.14-4.58a20.61,20.61,0,0,1,13.66,4.8,15.44,15.44,0,0,1,3.9,19.27Z"/><path class="cls-2" d="M54.06,40.3a7.94,7.94,0,0,1,0-.85,8.64,8.64,0,0,1,8.63-8.64h24.7A8.63,8.63,0,0,1,96,39.45a7.94,7.94,0,0,1,0,.85h4c0-.28,0-.57,0-.85A12.36,12.36,0,0,0,87.62,27.09H62.38A12.36,12.36,0,0,0,50,39.45c0,.28,0,.57,0,.85Z"/></svg>