<svg id="Layer_3" data-name="Layer 3" xmlns="http://www.w3.org/2000/svg" viewBox="0 0 150 150"><defs><style>.cls-1{fill:#aaa;}.cls-2,.cls-3{fill:none;stroke:#454547;}.cls-2{stroke-linecap:round;stroke-linejoin:round;stroke-width:3.93px;}.cls-3{stroke-miterlimit:10;stroke-width:3.7px;}.cls-4{fill:#454547;}</style></defs><title>reports</title><rect class="cls-1" x="-1320.29" y="-274.13" width="2531.25" height="1518.75"/><path class="cls-2" d="M120.45,141.8H30.5V14.41h90Z"/><path class="cls-3" d="M108.12,130.26H42.83V26h65.29Z"/><rect class="cls-4" x="47.91" y="36.78" width="24.58" height="3.03" rx="1.26"/><rect class="cls-4" x="47.91" y="46.73" width="56.28" height="3.03" rx="1.26"/><rect class="cls-4" x="47.91" y="56.68" width="31.21" height="3.03" rx="1.26"/><rect class="cls-4" x="47.91" y="66.64" width="40.06" height="3.03" rx="1.26"/><rect class="cls-4" x="47.91" y="76.59" width="56.28" height="3.03" rx="1.26"/><rect class="cls-4" x="47.91" y="86.54" width="41.9" height="3.03" rx="1.26"/><rect class="cls-4" x="47.91" y="96.5" width="51.74" height="3.03" rx="1.26"/><rect class="cls-4" x="47.91" y="106.45" width="45.47" height="3.03" rx="1.26"/><rect class="cls-4" x="47.91" y="116.41" width="48.54" height="3.03" rx="1.26"/><rect class="cls-4" x="58.72" y="8.2" width="32.93" height="12.43"/></svg>