<svg id="Layer_3" data-name="Layer 3" xmlns="http://www.w3.org/2000/svg" viewBox="0 0 150 150"><defs><style>.cls-1{fill:#aaa;}.cls-2{fill:#454547;}</style></defs><title>settings</title><rect class="cls-1" x="-996.73" y="-609.38" width="2531.25" height="1518.75"/><path class="cls-2" d="M117.13,92.8c1.16-2.74,24.62-4.07,24.62-4.07L143.13,75s-22.73-6.24-23.34-9.22a45.43,45.43,0,0,0-2.66-8.58c-1.16-2.73,14.36-20.29,14.36-20.29l-8.32-10.08S103,38.73,100.56,37.09a45.44,45.44,0,0,0-7.76-4.22c-2.74-1.16-4.07-24.61-4.07-24.61L75,6.87S68.76,29.6,65.79,30.21a45.31,45.31,0,0,0-8.59,2.66C54.47,34,36.91,18.51,36.91,18.51L26.83,26.83S38.73,47,37.09,49.44a45.44,45.44,0,0,0-4.22,7.76c-1.15,2.74-24.61,4.07-24.61,4.07L6.87,75s22.73,6.24,23.34,9.21a46,46,0,0,0,2.66,8.59c1.16,2.73-14.36,20.29-14.36,20.29l8.32,10.08S47,111.27,49.44,112.91a45.44,45.44,0,0,0,7.76,4.22c2.74,1.15,4.07,24.61,4.07,24.61L75,143.13s6.24-22.73,9.22-23.34a46.17,46.17,0,0,0,8.58-2.66c2.73-1.16,20.29,14.36,20.29,14.36l10.09-8.32S111.27,103,112.91,100.56A45.44,45.44,0,0,0,117.13,92.8Zm-23.85.45A25.82,25.82,0,1,1,100.84,75,25.73,25.73,0,0,1,93.28,93.25Z"/><path class="cls-2" d="M75,21.4A53.6,53.6,0,1,1,21.41,75,53.66,53.66,0,0,1,75,21.4m0-5A58.6,58.6,0,1,0,133.59,75,58.6,58.6,0,0,0,75,16.4Z"/></svg>