<svg id="Layer_3" data-name="Layer 3" xmlns="http://www.w3.org/2000/svg" viewBox="0 0 150 150"><defs><style>.cls-1{fill:#aaa;}.cls-2,.cls-4,.cls-6{fill:#454547;}.cls-2,.cls-3,.cls-4{stroke:#fff;stroke-miterlimit:10;}.cls-2,.cls-3{stroke-width:5.45px;}.cls-3{fill:none;}.cls-4{stroke-width:2.47px;}.cls-5{fill:#fff;}</style></defs><title>database_backup</title><rect class="cls-1" x="-1655.62" y="-274.13" width="2531.25" height="1518.75"/><path class="cls-2" d="M118.63,35.93v70.35c0,12.11-21.73,21.93-48.54,21.93s-48.54-9.82-48.54-21.93V35.93C21.55,23.82,43.28,14,70.09,14S118.63,23.82,118.63,35.93Z"/><path class="cls-3" d="M118.63,35.93c0,4.31-2.76,8.33-7.52,11.72-8.6,6.14-23.76,10.21-41,10.21s-32.42-4.07-41-10.21c-4.76-3.39-7.52-7.41-7.52-11.72"/><path class="cls-3" d="M118.63,59.38c0,12.11-21.73,21.93-48.54,21.93S21.55,71.49,21.55,59.38"/><path class="cls-3" d="M118.63,82.83c0,12.11-21.73,21.93-48.54,21.93S21.55,94.94,21.55,82.83"/><path class="cls-3" d="M118.63,106.28c0,12.11-21.73,21.93-48.54,21.93s-48.54-9.82-48.54-21.93"/><polygon class="cls-4" points="119.02 86.85 79.36 86.85 79.36 135.94 128.45 135.94 128.45 96.28 119.02 86.85"/><path class="cls-5" d="M90.82,86.85H117a0,0,0,0,1,0,0V97.42a3.34,3.34,0,0,1-3.34,3.34H94.16a3.34,3.34,0,0,1-3.34-3.34V86.85A0,0,0,0,1,90.82,86.85Z"/><rect class="cls-6" x="108.13" y="89.44" width="6" height="8.73"/><path class="cls-5" d="M87.55,114.53h32.72a3.34,3.34,0,0,1,3.34,3.34V136a0,0,0,0,1,0,0H84.2a0,0,0,0,1,0,0V117.87A3.34,3.34,0,0,1,87.55,114.53Z"/><rect class="cls-6" x="87.23" y="124.27" width="33.36" height="2" rx="0.94"/><rect class="cls-6" x="87.23" y="118.89" width="33.36" height="2" rx="0.94"/></svg>