<svg id="Layer_3" data-name="Layer 3" xmlns="http://www.w3.org/2000/svg" viewBox="0 0 500 500"><defs><style>.cls-1{fill:#aaa;}</style></defs><title>Sizegrip dark</title><rect class="cls-1" x="-1524.36" y="-788.87" width="2531.25" height="1518.75"/><circle cx="417.83" cy="350.7" r="21.48"/><circle cx="417.83" cy="417.83" r="21.48"/><circle cx="417.83" cy="216.43" r="21.48"/><circle cx="417.83" cy="149.3" r="21.48"/><circle cx="417.83" cy="82.17" r="21.48"/><circle cx="417.83" cy="283.56" r="21.48"/><circle cx="350.7" cy="350.7" r="21.48"/><circle cx="350.7" cy="417.83" r="21.48"/><circle cx="350.7" cy="216.43" r="21.48"/><circle cx="350.7" cy="283.56" r="21.48"/><circle cx="283.57" cy="350.7" r="21.48"/><circle cx="283.57" cy="417.83" r="21.48"/><circle cx="283.57" cy="283.56" r="21.48"/><circle cx="216.43" cy="350.7" r="21.48"/><circle cx="216.43" cy="417.83" r="21.48"/><circle cx="149.3" cy="417.83" r="21.48"/><circle cx="350.7" cy="149.3" r="21.48"/><circle cx="283.57" cy="216.43" r="21.48"/><circle cx="216.43" cy="283.56" r="21.48"/><circle cx="149.3" cy="350.7" r="21.48"/><circle cx="82.17" cy="417.83" r="21.48"/></svg>